<?xml version="1.0" encoding="UTF-8"?><svg id="svg" xmlns="http://www.w3.org/2000/svg" viewBox="0 0 1673.74 853.99"><rect x="765.46" y="1" width="71.76" height="847.17" style="fill:#00b53b; stroke:#fff; stroke-miterlimit:10; stroke-width:2px;"/><rect x="693.98" y="1" width="71.76" height="847.17" style="fill:#00a433; stroke:#fff; stroke-miterlimit:10; stroke-width:2px;"/><rect x="622.36" y="1" width="71.76" height="847.17" style="fill:#00b53b; stroke:#fff; stroke-miterlimit:10; stroke-width:2px;"/><rect x="550.88" y="1" width="71.76" height="847.17" style="fill:#00a433; stroke:#fff; stroke-miterlimit:10; stroke-width:2px;"/><rect x="479.4" y="1" width="71.76" height="847.17" style="fill:#00b53b; stroke:#fff; stroke-miterlimit:10; stroke-width:2px;"/><rect x="407.78" y="1" width="71.76" height="847.17" style="fill:#00a433; stroke:#fff; stroke-miterlimit:10; stroke-width:2px;"/><rect x="336.3" y="1" width="71.76" height="847.17" style="fill:#00b53b; stroke:#fff; stroke-miterlimit:10; stroke-width:2px;"/><rect x="264.83" y="1" width="71.76" height="847.17" style="fill:#00a433; stroke:#fff; stroke-miterlimit:10; stroke-width:2px;"/><rect x="193.21" y="1" width="71.76" height="847.17" style="fill:#00b53b; stroke:#fff; stroke-miterlimit:10; stroke-width:2px;"/><rect x="121.73" y="1" width="71.76" height="847.17" style="fill:#00a433; stroke:#fff; stroke-miterlimit:10; stroke-width:2px;"/><rect x="836.54" y="1.2" width="71.76" height="847.17" style="fill:#00b53b; stroke:#fff; stroke-miterlimit:10; stroke-width:2px;"/><rect x="908.12" y="1.2" width="71.76" height="847.17" style="fill:#00a433; stroke:#fff; stroke-miterlimit:10; stroke-width:2px;"/><rect x="979.71" y="1.2" width="71.76" height="847.17" style="fill:#00b53b; stroke:#fff; stroke-miterlimit:10; stroke-width:2px;"/><rect x="1051.15" y="1.2" width="71.76" height="847.17" style="fill:#00a433; stroke:#fff; stroke-miterlimit:10; stroke-width:2px;"/><rect x="1122.74" y="1.2" width="71.76" height="847.17" style="fill:#00b53b; stroke:#fff; stroke-miterlimit:10; stroke-width:2px;"/><rect x="1194.32" y="1.2" width="71.76" height="847.17" style="fill:#00a433; stroke:#fff; stroke-miterlimit:10; stroke-width:2px;"/><rect x="1265.77" y="1.2" width="71.76" height="847.17" style="fill:#00b53b; stroke:#fff; stroke-miterlimit:10; stroke-width:2px;"/><rect x="1337.35" y="1.2" width="71.76" height="847.17" style="fill:#00a433; stroke:#fff; stroke-miterlimit:10; stroke-width:2px;"/><rect x="1408.8" y="1.2" width="71.76" height="847.17" style="fill:#00b53b; stroke:#fff; stroke-miterlimit:10; stroke-width:2px;"/><rect x="1480.38" y="1.2" width="71.76" height="847.17" style="fill:#00a433; stroke:#fff; stroke-miterlimit:10; stroke-width:2px;"/><rect x="1555.53" y="1" width="115.86" height="847.17" style="fill:#0065a3; stroke:#fff; stroke-miterlimit:10; stroke-width:2px;"/><rect x="2.5" y="1" width="115.86" height="847.17" style="fill:#0065a3; stroke:#fff; stroke-miterlimit:10; stroke-width:2px;"/><rect x="2.5" y="4.32" width="1668.74" height="847.17" style="fill:none; stroke:#0065a3; stroke-miterlimit:10; stroke-width:5px;"/></svg>